<?xml version="1.0" encoding="UTF-8"?>
<!-- Generated by Pixelmator Pro 3.5.6 -->
<svg width="283" height="283" viewBox="0 0 283 283" xmlns="http://www.w3.org/2000/svg">
    <g id="Group">
        <path id="Path" fill="#000000" stroke="none" d="M 193.902344 124.956055 L 171.762207 102.815674 L 142.878906 131.695313 L 90.016357 78.840576 L 67.875732 100.980957 L 142.878906 175.983887 L 193.902344 124.956055 Z"/>
        <path id="path1" fill="#000000" stroke="none" d="M 141.556152 1.127441 C 127.85791 1.127441 114.625977 3.128906 102.095703 6.791016 L 102.095703 39.819824 C 114.348877 35.073486 127.647461 32.442139 141.556152 32.442139 C 201.991211 32.442139 251.157227 81.608154 251.157227 142.042969 C 251.157227 202.478027 201.991211 251.644043 141.556152 251.644043 C 81.121094 251.644043 31.955078 202.478027 31.955078 142.042969 C 31.955078 138.72583 32.128906 135.449463 32.419434 132.206543 L 1.022705 132.206543 C 0.797119 135.460449 0.640381 138.73291 0.640381 142.042969 C 0.640381 219.744629 63.854492 282.95874 141.556152 282.95874 C 219.257813 282.95874 282.47168 219.744629 282.47168 142.042969 C 282.47168 64.341553 219.257813 1.127441 141.556152 1.127441 Z"/>
    </g>
</svg>
