<?xml version="1.0" encoding="UTF-8"?>
<!-- Generated by Pixelmator Pro 3.5.6 -->
<svg width="263" height="378" viewBox="0 0 263 378" xmlns="http://www.w3.org/2000/svg">
    <g id="Group">
        <path id="Path" fill="#231f20" stroke="none" d="M 154.651855 53.606934 C 121.781738 47.334229 88.44873 54.245361 60.772949 73.056396 C 33.10498 91.863281 14.412598 120.32251 8.147949 153.185303 C 1.878418 186.051758 8.786133 219.392334 27.59668 247.063965 C 35.733398 259.036377 45.622559 269.104492 56.652344 277.259521 L 64.888184 243.186768 C 60.736816 239.048828 56.904785 234.479492 53.490723 229.457275 C 39.385742 208.708252 34.206055 183.700928 38.908203 159.052979 C 43.605469 134.404785 57.626953 113.05957 78.379883 98.950439 C 94.136719 88.239502 112.343262 82.677734 130.990234 82.677734 C 136.895996 82.677734 142.855469 83.23584 148.78418 84.367432 C 173.432129 89.065186 194.777344 103.086426 208.882813 123.835449 C 234.454102 161.456543 228.953125 211.179688 198.229004 242.458496 L 205.212891 277.650879 C 259.312012 238.034424 272.77002 162.125488 234.780273 106.232422 C 215.973633 78.564697 187.51416 59.872314 154.651855 53.606934 Z"/>
        <path id="path1" fill="#231f20" stroke="none" d="M 146.846191 1.596924 L 115.531738 1.596924 L 115.531738 32.911621 L 146.846191 32.911621 L 146.846191 1.596924 Z"/>
        <path id="path2" fill="#231f20" stroke="none" d="M 262.104492 54.226318 L 239.963867 32.078125 L 217.819824 54.21875 L 239.960449 76.366699 L 262.104492 54.226318 Z"/>
        <path id="path3" fill="#231f20" stroke="none" d="M 44.557617 54.21875 L 22.413086 32.078125 L 0.273438 54.226318 L 22.41748 76.366699 L 44.557617 54.21875 Z"/>
        <path id="path4" fill="#231f20" stroke="none" d="M 72.473633 315.197754 L 189.903809 315.197754 L 189.903809 283.883057 L 72.473633 283.883057 L 72.473633 315.197754 Z"/>
        <path id="path5" fill="#231f20" stroke="none" d="M 84.216797 377.387207 L 178.160645 377.387207 L 178.160645 346.07251 L 84.216797 346.07251 L 84.216797 377.387207 Z"/>
        <path id="path6" fill="#231f20" stroke="none" d="M 186.268066 160.194824 L 151.989258 160.194824 L 130.634766 194.362061 L 109.279297 160.194824 L 75.000488 160.194824 L 73.09668 161.384766 L 130.634766 253.451416 L 188.171875 161.384766 L 186.268066 160.194824 Z"/>
    </g>
</svg>
