<?xml version="1.0" encoding="UTF-8"?>
<!-- Generated by Pixelmator Pro 3.5.6 -->
<svg width="254" height="314" viewBox="0 0 254 314" xmlns="http://www.w3.org/2000/svg">
    <g id="Group">
        <path id="Path" fill="#231f20" stroke="none" d="M 126.419434 177.43457 C 158.796631 177.43457 185.134033 151.096924 185.134033 118.719482 C 185.134033 86.342285 158.796631 60.004883 126.419434 60.004883 C 94.041992 60.004883 67.70459 86.342285 67.70459 118.719482 C 67.70459 151.096924 94.041992 177.43457 126.419434 177.43457 Z M 126.419434 91.319336 C 141.526367 91.319336 153.81958 103.612793 153.81958 118.719482 C 153.81958 133.826416 141.526367 146.119873 126.419434 146.119873 C 111.3125 146.119873 99.019043 133.826416 99.019043 118.719482 C 99.019043 103.612793 111.3125 91.319336 126.419434 91.319336 Z"/>
        <path id="path1" fill="#231f20" stroke="none" d="M 127.015625 0.911621 C 55.074463 0.911621 0.820801 52.11499 0.820801 120.011719 C 0.820801 141.764893 11.796387 167.479248 26.9729 192.681152 L 50.323242 170.558594 C 38.452148 149.9021 32.135254 132.60376 32.135254 120.011719 C 32.135254 69.144531 72.039307 32.226074 127.015625 32.226074 C 181.992188 32.226074 221.895752 69.144531 221.895752 120.011719 C 221.895752 141.55957 203.524414 176.811279 170.172607 219.276367 C 153.892334 239.998535 137.447266 258.117676 127.015625 269.180176 C 120.64917 262.428955 112.033203 253.028564 102.592285 242.034424 L 79.705566 263.718262 C 97.298828 284.084473 111.97876 298.849121 115.999023 302.830322 L 127.015625 313.736084 L 138.032227 302.830322 C 149.821289 291.15625 253.210449 186.86084 253.210449 120.011719 C 253.210449 52.11499 198.956543 0.911621 127.015625 0.911621 Z"/>
    </g>
</svg>
