<?xml version="1.0" encoding="UTF-8"?>
<!-- Generated by Pixelmator Pro 3.5.6 -->
<svg width="221" height="346" viewBox="0 0 221 346" xmlns="http://www.w3.org/2000/svg">
    <g id="Group">
        <path id="Path" fill="#000000" stroke="none" d="M 172.957031 0.807129 L 48.126953 0.807129 C 22.110352 0.807129 0.940918 21.976563 0.940918 47.99292 L 0.940918 298.085205 C 0.940918 324.101807 22.110352 345.267334 48.126953 345.267334 L 140.386719 345.267334 L 140.386719 313.952881 L 48.126953 313.952881 C 39.376953 313.952881 32.255371 306.835205 32.255371 298.085205 L 32.255371 94.750732 L 188.828125 94.750732 L 188.828125 266.155762 L 220.143066 266.155762 L 220.143066 47.99292 C 220.143066 21.976563 198.973145 0.807129 172.957031 0.807129 Z M 32.255371 63.436035 L 32.255371 47.99292 C 32.255371 39.243164 39.376953 32.121582 48.126953 32.121582 L 172.957031 32.121582 C 181.707031 32.121582 188.828125 39.243164 188.828125 47.99292 L 188.828125 63.436035 L 32.255371 63.436035 Z"/>
        <path id="path1" fill="#000000" stroke="none" d="M 132.93457 283.547852 L 132.93457 252.233398 L 88.145508 252.233398 L 88.145508 283.547852 L 132.93457 283.547852 Z"/>
    </g>
</svg>
