<?xml version="1.0" encoding="UTF-8"?>
<!-- Generated by Pixelmator Pro 3.5.6 -->
<svg width="256" height="338" viewBox="0 0 256 338" xmlns="http://www.w3.org/2000/svg">
    <g id="Group">
        <path id="Path" fill="#000000" stroke="none" d="M 139.511963 304.812256 C 136.006592 306.29541 132.122803 306.33374 128.586914 304.896484 C 125.05127 303.466553 122.287354 300.745117 120.796631 297.231934 L 34.322266 93.12915 C 32.835205 89.620117 32.804688 85.736328 34.234131 82.204346 C 35.667725 78.668457 38.385498 75.904785 41.898438 74.413818 L 94.198975 52.254395 L 81.981934 23.424561 L 29.681396 45.583984 C 18.469727 50.331543 9.777344 59.165527 5.209473 70.453613 C 0.641357 81.741943 0.740967 94.134521 5.492188 105.346191 L 91.966553 309.448975 C 99.321289 326.811279 116.23999 337.254395 134.007324 337.254395 C 139.924805 337.254395 145.945313 336.096191 151.729004 333.64209 L 197.485107 314.253906 L 185.268311 285.424072 L 139.511963 304.812256 Z"/>
        <path id="path1" fill="#000000" stroke="none" d="M 233.650635 239.208984 C 221.984131 211.675049 190.199463 198.701172 162.630859 210.081055 L 125.200195 121.737305 C 138.39209 116.01123 148.613525 105.533447 154.014648 92.185059 C 159.481201 78.6875 159.362549 63.863525 153.678467 50.453857 L 132.78418 1.146484 L 103.954346 13.363525 L 124.848633 62.670898 C 127.264404 68.378174 127.317871 74.689209 124.98999 80.438232 C 122.661865 86.183594 118.239258 90.682861 112.52832 93.098633 L 84.15332 105.120605 L 146.010498 251.12793 L 174.38916 239.105957 C 186.17041 234.11377 199.824707 239.641113 204.816895 251.426025 L 225.707275 300.737305 L 254.544922 288.520508 L 233.650635 239.208984 Z"/>
    </g>
</svg>
