<?xml version="1.0" encoding="UTF-8"?>
<!-- Generated by Pixelmator Pro 3.5.6 -->
<svg width="315" height="310" viewBox="0 0 315 310" xmlns="http://www.w3.org/2000/svg">
    <path id="Path" fill="#231f20" stroke="none" d="M 314.666992 178.178955 L 268.922119 130.855469 L 295.722412 70.737793 L 230.260742 63.891602 L 212.149414 0.612549 L 157.601318 37.447021 L 139.869141 25.473145 L 139.869141 63.257568 L 157.601318 75.229248 L 193.915527 50.711426 L 205.972168 92.836182 L 249.553223 97.396484 L 231.713379 137.415039 L 262.167969 168.920654 L 222.772217 188.110107 L 225.849365 231.817383 L 183.338379 221.198486 L 157.601318 256.6604 L 131.859863 221.198486 L 89.352783 231.817383 L 92.429932 188.110107 L 53.034424 168.920654 L 83.489014 137.415039 L 69.22583 105.421143 L 34.941162 105.421143 L 46.280029 130.855469 L 0.535156 178.178955 L 59.70874 207.001221 L 55.079346 272.657959 L 118.939453 256.702393 L 157.601318 309.970215 L 196.258789 256.702393 L 260.122803 272.657959 L 255.493408 207.001221 L 314.666992 178.178955 Z"/>
</svg>
