<?xml version="1.0" encoding="UTF-8"?>
<!-- Generated by Pixelmator Pro 3.5.6 -->
<svg width="334" height="318" viewBox="0 0 334 318" xmlns="http://www.w3.org/2000/svg">
    <g id="Group">
        <path id="Path" fill="#231f20" stroke="none" d="M 332.931641 122.117188 L 274.625732 109.005859 L 255.962158 136.905029 L 274.553223 141.084961 L 226.518799 195.713379 L 233.269531 268.135986 L 166.477295 239.332764 L 99.677734 268.135986 L 106.432373 195.713379 L 58.397949 141.084961 L 129.367676 125.129395 L 166.477295 62.561523 L 178.78418 83.314697 L 198.08252 54.467529 L 166.477295 1.178467 L 109.322266 97.538086 L 0.019287 122.117188 L 74.001465 206.248291 L 63.600342 317.798828 L 166.477295 273.437988 L 269.354492 317.798828 L 258.949463 206.248291 L 332.931641 122.117188 Z"/>
        <path id="path1" fill="#231f20" stroke="none" d="M 140.860352 146.914551 L 95.109863 146.914551 L 166.404785 213.855225 L 276.883057 48.719971 L 239.205811 48.719971 L 160.915527 165.744385 L 140.860352 146.914551 Z"/>
    </g>
</svg>
