<?xml version="1.0" encoding="UTF-8"?>
<!-- Generated by Pixelmator Pro 3.5.6 -->
<svg width="376" height="253" viewBox="0 0 376 253" xmlns="http://www.w3.org/2000/svg">
    <path id="Path" fill="#231f20" stroke="none" d="M 375.639038 147.239258 L 303.541382 68.746338 L 250.583374 68.746338 L 250.583374 0.62793 L 95.126709 0.62793 L 95.126709 31.942627 L 219.268799 31.942627 L 219.268799 172.858154 L 31.381348 172.858154 L 31.381348 85.507568 L 0.066772 85.507568 L 0.066772 204.172852 L 31.837158 204.172852 C 32.886475 230.94873 53.433716 252.402344 78.609375 252.402344 C 103.78479 252.402344 124.331177 230.94873 125.38147 204.172852 L 219.463745 204.172852 L 250.583374 204.172852 L 250.817505 204.172852 C 251.866821 230.94873 272.414185 252.402344 297.5896 252.402344 C 322.765137 252.402344 343.311523 230.94873 344.361694 204.172852 L 375.639038 204.172852 L 375.639038 147.239258 Z M 78.609375 221.087646 C 70.626831 221.087646 64.105469 213.661865 63.227173 204.172852 L 93.991333 204.172852 C 93.113159 213.661865 86.59082 221.087646 78.609375 221.087646 Z M 250.77832 100.061035 L 289.787842 100.061035 L 310.150635 122.231934 L 282.177002 122.231934 L 282.177002 153.546631 L 338.910767 153.546631 L 344.324463 159.440918 L 344.324463 172.858154 L 250.77832 172.858154 L 250.77832 100.061035 Z M 297.5896 221.087646 C 289.607056 221.087646 283.085693 213.661865 282.207642 204.172852 L 312.971802 204.172852 C 312.093506 213.661865 305.571289 221.087646 297.5896 221.087646 Z"/>
</svg>
