<?xml version="1.0" encoding="UTF-8"?>
<!-- Generated by Pixelmator Pro 3.5.6 -->
<svg width="252" height="315" viewBox="0 0 252 315" xmlns="http://www.w3.org/2000/svg">
    <g id="Group">
        <path id="Path" fill="#231f20" stroke="none" d="M 125.8302 140.768311 C 164.392456 140.768311 195.768188 109.392578 195.768188 70.830322 C 195.768188 32.268066 164.392456 0.892334 125.8302 0.892334 C 87.268066 0.892334 55.896118 32.268066 55.896118 70.830322 C 55.896118 109.392578 87.268066 140.768311 125.8302 140.768311 Z M 125.8302 32.207031 C 147.125854 32.207031 164.453613 49.534668 164.453613 70.830322 C 164.453613 92.125977 147.125854 109.453613 125.8302 109.453613 C 104.534668 109.453613 87.210693 92.125977 87.210693 70.830322 C 87.210693 49.534668 104.534668 32.207031 125.8302 32.207031 Z"/>
        <path id="path1" fill="#231f20" stroke="none" d="M 176.559692 157.599121 L 75.104614 157.599121 C 34.008057 157.599121 0.571899 187.078857 0.571899 223.313232 L 0.571899 314.171875 L 31.886475 314.171875 L 31.886475 223.313232 C 31.886475 204.345459 51.274658 188.913818 75.104614 188.913818 L 176.559692 188.913818 C 200.389771 188.913818 219.773926 204.345459 219.773926 223.313232 L 219.773926 313.262207 L 251.088623 313.262207 L 251.088623 223.313232 C 251.088623 187.078857 217.65625 157.599121 176.559692 157.599121 Z"/>
    </g>
</svg>
