<?xml version="1.0" encoding="UTF-8"?>
<!-- Generated by Pixelmator Pro 3.5.6 -->
<svg width="157" height="157" viewBox="0 0 157 157" xmlns="http://www.w3.org/2000/svg">
    <g id="Group">
        <path id="Path" fill="#000000" stroke="none" d="M 78.493164 1.071167 C 70.476807 1.071167 62.740234 2.292847 55.458984 4.557495 L 55.458984 14.203857 C 62.662598 11.625732 70.414307 10.210938 78.493164 10.210938 C 116.290771 10.210938 147.041992 40.961914 147.041992 78.759521 C 147.041992 116.557373 116.290771 147.30835 78.493164 147.30835 C 40.695557 147.30835 9.94458 116.557373 9.94458 78.759521 C 9.94458 76.824463 10.044922 74.913818 10.203369 73.018188 L 1.039551 73.018188 C 0.900146 74.916626 0.804688 76.826782 0.804688 78.759521 C 0.804688 121.598022 35.654785 156.44812 78.493164 156.44812 C 121.331543 156.44812 156.181641 121.598022 156.181641 78.759521 C 156.181641 35.921265 121.331543 1.071167 78.493164 1.071167 Z"/>
        <path id="path1" fill="#000000" stroke="none" d="M 111.705322 68.780762 L 105.243164 62.318726 L 80.708984 86.852783 L 44.537842 48.729492 L 37.90625 55.021973 L 80.539307 99.951172 L 111.705322 68.780762 Z"/>
    </g>
</svg>
