<?xml version="1.0" encoding="UTF-8"?>
<!-- Generated by Pixelmator Pro 3.5.6 -->
<svg width="138" height="199" viewBox="0 0 138 199" xmlns="http://www.w3.org/2000/svg">
    <g id="Group">
        <path id="Path" fill="#231f20" stroke="none" d="M 32.834717 42.809082 C 18.768066 52.370483 9.266846 66.834595 6.08252 83.540894 C 2.89624 100.247559 6.408203 117.192871 15.967529 131.257446 C 19.739258 136.806274 24.283447 141.631592 29.417969 145.6521 L 31.833008 135.659912 C 28.751465 132.829346 25.938721 129.66748 23.527588 126.120605 C 15.338379 114.073242 12.332764 99.560303 15.05957 85.252441 C 17.788574 70.944824 25.92627 58.555908 37.97168 50.369019 C 47.338867 44.002808 57.993896 40.954712 68.546143 40.954712 C 86.01123 40.954712 103.188721 49.311401 113.725342 64.810791 C 121.914551 76.858032 124.920166 91.370972 122.193359 105.680908 C 119.982666 117.270996 114.174072 127.557739 105.66333 135.41626 L 107.707275 145.715698 C 119.959229 136.213745 128.241699 122.757324 131.17041 107.392456 C 134.356689 90.686157 130.844727 73.738403 121.2854 59.673828 C 101.550781 30.638916 61.871826 23.078979 32.834717 42.809082 Z"/>
        <path id="path1" fill="#231f20" stroke="none" d="M 73.196533 1.072998 L 64.056396 1.072998 L 64.056396 17.957886 L 73.196533 17.957886 L 73.196533 1.072998 Z"/>
        <path id="path2" fill="#231f20" stroke="none" d="M 136.481201 26.711548 L 130.019043 20.249512 L 118.081055 32.189697 L 124.542969 38.651855 L 136.481201 26.711548 Z"/>
        <path id="path3" fill="#231f20" stroke="none" d="M 19.174316 32.189697 L 7.234131 20.249512 L 0.771973 26.711548 L 12.711914 38.651855 L 19.174316 32.189697 Z"/>
        <path id="path4" fill="#231f20" stroke="none" d="M 39.575684 171.284302 L 97.677246 171.284302 L 97.677246 162.144287 L 39.575684 162.144287 L 39.575684 171.284302 Z"/>
        <path id="path5" fill="#231f20" stroke="none" d="M 45.38623 198.870972 L 91.866699 198.870972 L 91.866699 189.731201 L 45.38623 189.731201 L 45.38623 198.870972 Z"/>
        <path id="path6" fill="#231f20" stroke="none" d="M 85.226074 102.157104 L 68.327393 129.195435 L 51.428955 102.157104 L 40.651611 102.157104 L 68.327393 146.439697 L 96.003662 102.157104 L 85.226074 102.157104 Z"/>
    </g>
</svg>
