<?xml version="1.0" encoding="UTF-8"?>
<!-- Generated by Pixelmator Pro 3.5.6 -->
<svg width="140" height="173" viewBox="0 0 140 173" xmlns="http://www.w3.org/2000/svg">
    <g id="Group">
        <path id="Path" fill="#231f20" stroke="none" d="M 69.134155 94.409485 C 85.512695 94.409485 98.838623 81.083496 98.838623 64.704956 C 98.838623 48.326416 85.512695 35.000671 69.134155 35.000671 C 52.755737 35.000671 39.42981 48.326416 39.42981 64.704956 C 39.42981 81.083496 52.755737 94.409485 69.134155 94.409485 Z M 69.134155 44.140442 C 80.474121 44.140442 89.698853 53.365173 89.698853 64.704956 C 89.698853 76.045044 80.474121 85.269775 69.134155 85.269775 C 57.794312 85.269775 48.56958 76.045044 48.56958 64.704956 C 48.56958 53.365173 57.794312 44.140442 69.134155 44.140442 Z"/>
        <path id="path1" fill="#231f20" stroke="none" d="M 69.482422 0.505371 C 29.446533 0.505371 0.386963 27.822205 0.386963 65.45929 C 0.386963 76.983948 6.272339 90.849365 14.511719 104.632629 L 21.288452 98.211731 C 13.550049 84.96228 9.526733 73.865601 9.526733 65.45929 C 9.526733 33.117249 34.741699 9.645142 69.482422 9.645142 C 104.223022 9.645142 129.437866 33.117249 129.437866 65.45929 C 129.437866 79.26947 118.640137 100.307007 98.209351 126.300659 C 86.650635 141.007813 74.964844 153.479065 69.482422 159.155884 C 65.791504 155.334534 59.2854 148.426147 51.903809 139.837463 L 45.241455 146.149536 C 56.284668 158.979614 65.28833 167.960449 66.266846 168.929382 L 69.482422 172.113647 L 72.697754 168.929382 C 75.386597 166.267212 138.577759 103.268005 138.577759 65.45929 C 138.577759 27.822205 109.518066 0.505371 69.482422 0.505371 Z"/>
    </g>
</svg>
