<?xml version="1.0" encoding="UTF-8"?>
<!-- Generated by Pixelmator Pro 3.5.6 -->
<svg width="120" height="193" viewBox="0 0 120 193" xmlns="http://www.w3.org/2000/svg">
    <g id="Group">
        <path id="Path" fill="#000000" stroke="none" d="M 96.297119 0.10675 L 23.428711 0.10675 C 10.760742 0.10675 0.453857 10.411255 0.453857 23.079102 L 0.453857 169.068359 C 0.453857 181.736206 10.760742 192.042969 23.428711 192.042969 L 77.284424 192.042969 L 77.284424 182.903198 L 23.428711 182.903198 C 15.799561 182.903198 9.593994 176.697754 9.593994 169.068359 L 9.593994 45.805786 L 110.131836 45.805786 L 110.131836 150.430725 L 119.271729 150.430725 L 119.271729 23.079102 C 119.271729 10.411255 108.964844 0.10675 96.297119 0.10675 Z M 9.593994 36.666016 L 9.593994 23.079102 C 9.593994 15.452026 15.799561 9.246521 23.428711 9.246521 L 96.297119 9.246521 C 103.92627 9.246521 110.131836 15.452026 110.131836 23.079102 L 110.131836 36.666016 L 9.593994 36.666016 Z"/>
        <path id="path1" fill="#000000" stroke="none" d="M 72.936768 156.01239 L 72.936768 146.87262 L 46.79126 146.87262 L 46.79126 156.01239 L 72.936768 156.01239 Z"/>
    </g>
</svg>
