<?xml version="1.0" encoding="UTF-8"?>
<!-- Generated by Pixelmator Pro 3.5.6 -->
<svg width="141" height="191" viewBox="0 0 141 191" xmlns="http://www.w3.org/2000/svg">
    <g id="Group">
        <path id="Path" fill="#000000" stroke="none" d="M 78.976563 180.450317 C 72.427246 183.226135 64.833984 180.155823 62.062256 173.604187 L 11.583496 54.45874 C 8.807617 47.907166 11.878174 40.320496 18.429688 37.546936 L 48.959717 24.611267 L 45.393555 16.194519 L 14.86377 29.129944 C 3.67334 33.871826 -1.572754 46.833923 3.166748 58.024475 L 53.645508 177.170166 C 55.943848 182.590088 60.214844 186.794189 65.672852 189.003113 C 68.34375 190.08551 71.146484 190.625366 73.94458 190.625366 C 76.861084 190.625366 79.775391 190.038696 82.542236 188.867065 L 109.251953 177.551636 L 105.686279 169.134888 L 78.976563 180.450317 Z"/>
        <path id="path1" fill="#000000" stroke="none" d="M 127.939941 139.73175 C 122.07373 125.890259 106.047852 119.403442 92.204102 125.2677 L 88.263428 126.936707 C 83.048828 114.630493 68.03125 79.182556 62.849854 66.952148 L 66.790771 65.283081 C 80.63208 59.419128 87.121094 43.386475 81.256836 29.547241 L 69.062256 0.764343 L 60.645264 4.330322 L 72.839844 33.112976 C 76.738281 42.312988 72.424805 52.967957 63.224854 56.866333 L 50.867432 62.101135 L 52.650146 66.309509 C 52.650146 66.309509 80.658691 132.414917 81.629395 134.708801 L 83.410156 138.919434 L 95.769775 133.684448 C 104.969971 129.783997 115.625 134.097412 119.523193 143.297485 L 131.717773 172.082397 L 140.134766 168.516663 L 127.939941 139.73175 Z"/>
    </g>
</svg>
