<?xml version="1.0" encoding="UTF-8"?>
<!-- Generated by Pixelmator Pro 3.5.6 -->
<svg width="181" height="179" viewBox="0 0 181 179" xmlns="http://www.w3.org/2000/svg">
    <path id="Path" fill="#231f20" stroke="none" d="M 180.816406 102.571411 L 154.529541 75.380737 L 169.93042 40.837891 L 132.312744 36.903687 L 121.905762 0.543213 L 90.563477 21.707886 L 79.108154 13.972534 L 79.108154 26.17749 L 90.563477 33.912964 L 116.018066 16.724365 L 124.469238 46.253784 L 155.013672 49.447144 L 142.507568 77.499634 L 163.85498 99.583252 L 136.244385 113.032837 L 138.400391 143.668579 L 108.604248 136.225098 L 90.563477 161.079712 L 72.522827 136.225098 L 42.726563 143.668579 L 44.88269 113.032837 L 17.271973 99.583252 L 38.619507 77.499634 L 29.723999 57.546753 L 18.646484 57.546753 L 26.597412 75.380737 L 0.31543 102.571411 L 34.3125 119.137817 L 31.657715 156.861694 L 68.349121 147.694214 L 90.563477 178.302979 L 112.777954 147.694214 L 149.469238 156.861694 L 146.814453 119.137817 L 180.816406 102.571411 Z"/>
</svg>
