<?xml version="1.0" encoding="UTF-8"?>
<!-- Generated by Pixelmator Pro 3.5.6 -->
<svg width="179" height="170" viewBox="0 0 179 170" xmlns="http://www.w3.org/2000/svg">
    <g id="Group">
        <path id="Path" fill="#231f20" stroke="none" d="M 177.496338 65.580566 L 142.086182 57.619995 L 136.638916 65.762329 L 160.457275 71.119019 L 128.628662 107.312256 L 133.102539 155.300903 L 88.847412 136.21582 L 44.5896 155.300903 L 49.063477 107.312256 L 17.237061 71.119019 L 64.259521 60.544434 L 88.847412 19.091553 L 102.724365 42.488892 L 108.356934 34.069824 L 88.847412 1.173462 L 58.408936 52.49353 L 0.197998 65.580566 L 39.598145 110.387207 L 34.057617 169.796021 L 88.847412 146.167847 L 143.63501 169.796021 L 138.094238 110.387207 L 177.496338 65.580566 Z"/>
        <path id="path1" fill="#231f20" stroke="none" d="M 68.282715 77.290405 L 55.250244 77.290405 L 87.93457 109.454346 L 147.796631 19.970215 L 136.800049 19.970215 L 86.475342 95.195801 L 68.282715 77.290405 Z"/>
    </g>
</svg>
