<?xml version="1.0" encoding="UTF-8"?>
<!-- Generated by Pixelmator Pro 3.5.6 -->
<svg width="230" height="148" viewBox="0 0 230 148" xmlns="http://www.w3.org/2000/svg">
    <g id="Group">
        <path id="Path" fill="#231f20" stroke="none" d="M 186.775391 44.512817 L 150.042114 44.512817 L 150.042114 1.020386 L 56.213257 1.020386 L 56.213257 10.160156 L 140.902222 10.160156 L 140.902222 44.512817 L 140.902222 110.986206 L 10.086304 110.986206 L 10.086304 49.78772 L 0.946655 49.78772 L 0.946655 120.125977 L 140.902222 120.125977 L 150.042114 120.125977 L 229.763306 120.125977 L 229.763306 91.316284 L 186.775391 44.512817 Z M 208.254883 81.411011 L 176.212036 81.411011 L 176.212036 73.302246 L 200.807129 73.302246 L 208.254883 81.411011 Z M 220.623535 110.986206 L 150.042114 110.986206 L 150.042114 53.652588 L 182.758911 53.652588 L 192.411987 64.162476 L 167.072266 64.162476 L 167.072266 90.551025 L 216.649414 90.551025 L 220.623535 94.877686 L 220.623535 110.986206 Z"/>
        <path id="path1" fill="#231f20" stroke="none" d="M 45.666016 138.149048 C 37.162231 138.149048 30.242554 130.258789 30.242554 120.561035 L 21.102783 120.561035 C 21.102783 135.299561 32.12146 147.288818 45.666016 147.288818 C 59.210693 147.288818 70.22937 135.299561 70.22937 120.561035 L 61.089478 120.561035 C 61.089478 130.258789 54.169922 138.149048 45.666016 138.149048 Z"/>
        <path id="path2" fill="#231f20" stroke="none" d="M 185.483521 138.149048 C 176.977295 138.149048 170.057739 130.258789 170.057739 120.561035 L 160.917969 120.561035 C 160.917969 135.299561 171.938843 147.288818 185.483521 147.288818 C 199.028076 147.288818 210.046631 135.299561 210.046631 120.561035 L 200.906982 120.561035 C 200.906982 130.258789 193.987305 138.149048 185.483521 138.149048 Z"/>
    </g>
</svg>
