<?xml version="1.0" encoding="UTF-8"?>
<!-- Generated by Pixelmator Pro 3.5.6 -->
<svg width="139" height="180" viewBox="0 0 139 180" xmlns="http://www.w3.org/2000/svg">
    <g id="Group">
        <path id="Path" fill="#231f20" stroke="none" d="M 69.009644 73.612 C 89.000732 73.612 105.265503 57.34967 105.265503 37.358643 C 105.265503 17.36731 89.000732 1.102722 69.009644 1.102722 C 49.018555 1.102722 32.756104 17.36731 32.756104 37.358643 C 32.756104 57.34967 49.018555 73.612 69.009644 73.612 Z M 69.009644 10.242493 C 83.96228 10.242493 96.12561 22.405762 96.12561 37.358643 C 96.12561 52.30896 83.96228 64.472229 69.009644 64.472229 C 54.059326 64.472229 41.895874 52.30896 41.895874 37.358643 C 41.895874 22.405762 54.059326 10.242493 69.009644 10.242493 Z"/>
        <path id="path1" fill="#231f20" stroke="none" d="M 98.622559 92.576904 L 39.398926 92.576904 C 17.928345 92.576904 0.460938 107.734741 0.460938 126.366943 L 0.460938 179.404968 L 9.600708 179.404968 L 9.600708 126.366943 C 9.600708 112.775452 22.969116 101.716675 39.398926 101.716675 L 98.622559 101.716675 C 115.052368 101.716675 128.418457 112.775452 128.418457 126.366943 L 128.418457 178.876282 L 137.55835 178.876282 L 137.55835 126.366943 C 137.55835 107.734741 120.090942 92.576904 98.622559 92.576904 Z"/>
    </g>
</svg>
