<?xml version="1.0" encoding="UTF-8"?>
<!-- Generated by Pixelmator Pro 3.5.6 -->
<svg width="155" height="153" viewBox="0 0 155 153" xmlns="http://www.w3.org/2000/svg">
    <path id="Path" fill="#f2e4ff" stroke="none" d="M 154.418701 87.376953 L 128.810059 64.732422 L 145.129883 34.693359 L 110.955566 33.806641 L 104.148682 0.306641 L 77.398926 21.59375 L 66.796387 13.155273 L 66.796387 29.010742 L 77.398926 37.449219 L 96.023193 22.62793 L 100.762207 45.955078 L 124.557617 46.570313 L 113.193115 67.486328 L 131.023193 83.253906 L 108.87793 91.970703 L 112.401367 115.509766 L 89.831787 107.953125 L 77.398926 128.249023 L 64.968506 107.953125 L 42.398926 115.509766 L 45.922363 91.970703 L 23.7771 83.253906 L 41.607178 67.486328 L 33.898682 53.298828 L 19.77832 53.298828 L 25.98999 64.732422 L 0.381592 87.376953 L 32.191162 99.897461 L 27.128906 133.707031 L 59.544678 122.851563 L 77.398926 152.003906 L 95.255615 122.851563 L 127.671387 133.707031 L 122.608887 99.897461 L 154.418701 87.376953 Z"/>
</svg>
