<?xml version="1.0" encoding="iso-8859-1"?>
<!-- Uploaded to: SVG Repo, www.svgrepo.com, Generator: SVG Repo Mixer Tools -->
<!DOCTYPE svg PUBLIC "-//W3C//DTD SVG 1.1//EN" "http://www.w3.org/Graphics/SVG/1.1/DTD/svg11.dtd">
<svg fill="#000000" version="1.1" id="Capa_1" xmlns="http://www.w3.org/2000/svg" xmlns:xlink="http://www.w3.org/1999/xlink" 
	 width="800px" height="800px" viewBox="0 0 545.062 545.062"
	 xml:space="preserve">
<g>
	<g id="iconos_58_">
		<path d="M518.23,463.781c14.793,0,26.832-12.039,26.832-26.832v-49.668h-191.25v49.668c0,14.793,12.039,26.832,26.832,26.832
			H518.23z"/>
		<path d="M14.306,148.219H114.75v-28.688H14.306C6.417,119.531,0,125.948,0,133.846C0,141.802,6.417,148.219,14.306,148.219z"/>
		<polygon points="401.625,228.879 372.335,224.738 372.498,259.507 401.625,274.387 		"/>
		<polygon points="150.303,176.906 210.375,176.906 210.375,90.844 150.083,90.844 129.409,109.969 124.312,114.683 
			124.312,119.531 124.312,148.219 124.312,148.897 132.555,157.781 		"/>
		<path d="M545.062,361.52v-4.781v-10.509l-5.087-5.087l-6.149-6.149l-5.087-5.087H518.23h-4.781h-25.762v-9.562V130.71v-3.185
			l38.25-15.95V81.281h-43.031h-19.125H248.625h-28.688v9.562v86.062v5.527l5.565,4.035l13.493,9.773l123.729,17.48l4.781,0.679
			l4.781,0.68l33.822,4.781l4.791,0.679l0.287,0.038v32.407v31.652v5.364v30.342v9.562h-9.562h-20.98h-4.781h-5.728l-0.641,0.641
			l-4.446,4.446l-6.149,6.149l-5.087,5.087v10.509v20.98h191.25V361.52z M392.062,107.578c0-3.959,3.213-7.172,7.172-7.172h52.594
			c3.959,0,7.172,3.213,7.172,7.172v4.781c0,3.959-3.213,7.172-7.172,7.172h-52.594c-3.959,0-7.172-3.213-7.172-7.172V107.578z
			 M392.062,136.266c0-3.959,3.213-7.172,7.172-7.172h52.594c3.959,0,7.172,3.213,7.172,7.172v4.781
			c0,3.959-3.213,7.172-7.172,7.172h-52.594c-3.959,0-7.172-3.213-7.172-7.172V136.266z"/>
	</g>
</g>
</svg>