<?xml version="1.0" encoding="UTF-8"?>
<!-- Generated by Pixelmator Pro 3.5.6 -->
<svg width="589" height="612" viewBox="0 0 589 612" xmlns="http://www.w3.org/2000/svg">
    <g id="Group">
        <g id="g1">
            <path id="Path" fill="#ffca1a" stroke="none" d="M 365.135559 261.264221 C 354.953491 253.966339 342.391296 249.597229 328.742615 249.597229 C 320.243042 249.597229 312.15094 251.27594 304.793427 254.301392 L 304.770905 254.27887 L 412.288391 146.761353 L 293.894684 28.363525 L 93.546936 228.709351 L 293.894684 429.057129 L 375.539246 347.408356 L 375.760925 347.182526 C 396.612549 325.401367 396.240112 290.342651 374.930969 269.03299 C 371.935913 266.037567 368.634277 263.470886 365.135559 261.264221 Z"/>
            <path id="path1" fill="#171109" stroke="none" d="M 433.378479 116.645081 C 427.380127 118.55603 421.658447 121.218933 416.358459 124.539734 L 293.693024 1.876465 L 66.829803 228.738068 L 293.693024 455.601685 L 387.955994 361.340912 L 387.988403 361.373444 C 388.205444 361.156769 388.385132 360.917206 388.598389 360.698364 L 390.069702 359.227173 L 389.995056 359.152527 C 416.995117 329.907166 416.380554 284.195129 387.988403 255.800934 C 377.196777 245.01004 363.893005 238.24176 349.944275 235.453094 L 426.213806 159.183044 C 430.94635 154.234741 436.910095 150.503113 443.493774 148.407654 C 458.201355 143.726379 474.153748 147.596008 485.142151 158.5047 L 508.628479 134.851746 C 488.792175 115.153503 459.95874 108.179321 433.378479 116.645081 Z M 365.026367 337.12674 L 293.693024 408.462189 L 113.969421 228.738068 L 293.693024 49.015991 L 391.464233 146.789368 L 283.945953 254.307617 L 284.005615 254.367249 C 283.484772 254.859222 282.92807 255.290924 282.41806 255.800934 C 253.312164 284.908875 253.312164 332.2659 282.41806 361.373444 L 294.203949 373.157166 L 358.933899 308.427612 L 335.361755 284.857605 L 296.685913 323.533813 C 290.970978 308.738892 294.071838 291.290985 305.987671 279.372589 C 322.096741 263.263367 348.307678 263.259705 364.416748 279.372589 C 380.308899 295.265137 380.490967 320.970093 365.026367 337.12674 Z"/>
        </g>
        <g id="g2">
            <path id="path2" fill="#171109" stroke="none" d="M 91.0961 545.197632 C 87.197998 542.162109 82.638672 539.635254 77.422211 537.629272 C 72.203705 535.62323 66.441986 533.991577 60.137054 532.726074 C 58.30191 532.384277 56.267426 531.953003 54.031494 531.436218 C 51.795563 530.919434 49.702057 530.264343 47.755035 529.458679 C 45.803955 528.657104 44.19873 527.652039 42.937332 526.447632 C 41.675934 525.247253 41.045242 523.843445 41.045242 522.236206 C 41.045242 520.401062 41.618973 518.940308 42.766434 517.849792 C 43.911865 516.763367 45.545563 515.929199 47.667557 515.355469 C 49.787506 514.781738 52.281815 514.496948 55.150482 514.496948 C 58.244965 514.496948 61.282471 514.924194 64.265045 515.786804 C 67.245605 516.645386 70.140717 517.935242 72.950348 519.656433 C 75.76001 521.377625 78.368256 523.554565 80.7771 526.191284 L 101.073334 506.582703 C 98.088715 502.456726 94.562897 498.843445 90.493896 495.746918 C 86.422852 492.65448 81.405762 490.274109 75.444672 488.609863 C 69.481537 486.949707 62.259033 486.11557 53.773102 486.11557 C 47.582108 486.11557 41.647461 487.006683 35.973221 488.780762 C 30.296951 490.562988 25.279861 493.142761 20.921951 496.524109 C 16.564041 499.905457 13.066727 503.945984 10.432037 508.64975 C 7.79126 513.349487 6.47493 518.508972 6.47493 524.128296 C 6.47493 529.287781 7.305008 533.930542 8.969238 538.060547 C 10.629395 542.186523 13.154205 545.828308 16.537598 548.981812 C 19.916901 552.135254 24.132401 554.857422 29.177979 557.152344 C 34.223541 559.447266 40.127686 561.339355 46.89444 562.824585 C 48.727539 563.284363 50.619629 563.715698 52.570709 564.114441 C 54.517731 564.521362 56.466797 565.0625 58.417877 565.750183 C 60.366943 566.437866 62.143066 567.210938 63.750336 568.073608 C 65.353516 568.932129 66.614899 569.937195 67.532471 571.080566 C 68.450043 572.228027 68.909821 573.607422 68.909821 575.210632 C 68.909821 577.045776 68.364594 578.563477 67.276123 579.767944 C 66.183594 580.972351 64.608887 581.830933 62.545898 582.347656 C 60.480865 582.864441 58.185944 583.120789 55.665192 583.120789 C 49.929932 583.120789 44.025787 581.891968 37.95076 579.422058 C 31.871658 576.960327 25.967529 572.000183 20.234283 564.545776 L 0.283936 587.075867 C 4.295975 592.007507 8.853271 596.308472 13.95784 599.978699 C 19.05835 603.648926 24.964508 606.456543 31.672272 608.40564 C 38.380035 610.354675 46.033844 611.327148 54.633698 611.327148 C 63.805267 611.327148 72.032806 609.809448 79.314301 606.769897 C 86.595795 603.734375 92.385986 599.262573 96.68692 593.35437 C 100.98584 587.450195 103.136322 580.199219 103.136322 571.597351 C 103.136322 565.750183 102.104828 560.647644 100.039795 556.289734 C 97.976807 551.935913 94.994232 548.237183 91.0961 545.197632 Z"/>
            <path id="path3" fill="#171109" stroke="none" d="M 121.538422 517.07666 L 142.522308 517.07666 L 142.522308 581.745483 L 121.538422 581.745483 L 121.538422 609.610046 L 197.388824 609.610046 L 197.388824 581.745483 L 176.575836 581.745483 L 176.575836 517.07666 L 197.388824 517.07666 L 197.388824 489.212097 L 121.538422 489.212097 L 121.538422 517.07666 Z"/>
            <path id="path4" fill="#171109" stroke="none" d="M 335.928467 545.197632 C 335.755554 542.617859 335.611084 540.697266 335.497131 539.435913 L 277.36319 539.435913 L 277.36319 564.203979 L 304.288605 564.203979 C 304.052338 566.156311 303.631958 568.043335 302.818939 569.79071 C 301.671478 572.26062 300.094727 574.380554 298.088715 576.154663 C 296.080658 577.93689 293.702301 579.336609 290.95166 580.370117 C 288.198975 581.403687 285.2164 581.916382 282.007965 581.916382 C 277.420166 581.916382 273.14975 581.086304 269.194672 579.422058 C 265.237549 577.761902 261.825684 575.442566 258.96109 572.459961 C 256.092438 569.477417 253.856537 565.953613 252.253326 561.880554 C 250.646088 557.811523 249.844482 553.425171 249.844482 548.721375 C 249.844482 543.907715 250.617584 539.464355 252.165863 535.391296 C 253.714111 531.326355 255.864594 527.827026 258.617279 524.901367 C 261.36792 521.975769 264.606842 519.684937 268.334076 518.020691 C 272.059235 516.360535 276.158783 515.526367 280.630615 515.526367 C 284.644684 515.526367 288.284424 516.043152 291.553864 517.07666 C 294.821289 518.10614 297.858795 519.485535 300.668457 521.202637 C 303.478119 522.923828 306.143311 524.986816 308.666107 527.395691 L 328.962341 505.724121 C 325.521973 502.053894 321.393982 498.729492 316.578308 495.746918 C 311.762634 492.768402 306.344727 490.416504 300.324615 488.695313 C 294.304535 486.97821 287.912109 486.11557 281.147369 486.11557 C 271.284088 486.11557 262.313965 487.665863 254.230865 490.76239 C 246.145752 493.854828 239.12265 498.216797 233.16153 503.832031 C 227.198395 509.451355 222.639069 516.071655 219.48764 523.69696 C 216.332123 531.326355 214.757416 539.667847 214.757416 548.721375 C 214.757416 557.665039 216.189697 565.982117 219.05835 573.660339 C 221.922943 581.34668 226.136383 587.995483 231.69873 593.614746 C 237.259033 599.23407 243.997314 603.587891 251.907471 606.684448 C 259.819672 609.780945 268.763336 611.327148 278.74057 611.327148 C 287.10849 611.327148 294.790771 610.008789 301.787445 607.37207 C 308.780029 604.735352 314.859131 601.069214 320.018616 596.365417 C 325.178162 591.66571 329.190186 586.046387 332.058838 579.511597 C 334.923401 572.972656 336.357727 565.864136 336.357727 558.181824 C 336.357727 557.152344 336.329285 555.374207 336.272278 552.85144 C 336.213318 550.328613 336.099365 547.777344 335.928467 545.197632 Z"/>
            <path id="path5" fill="#171109" stroke="none" d="M 435.940674 514.496948 C 435.940674 519.082703 435.940674 523.212769 435.940674 526.878906 C 435.940674 530.549194 436.028137 533.930542 436.199036 537.027039 C 436.372009 540.123535 436.599854 543.220093 436.886719 546.316589 C 437.17157 549.409058 437.517395 552.680542 437.920227 556.118835 C 437.989441 556.714722 438.076111 557.391663 438.150635 558.011963 L 387.954834 489.212097 L 357.512512 489.212097 L 357.512512 609.610046 L 390.363708 609.610046 L 390.363708 573.835327 C 390.363708 570.165039 390.333191 566.897644 390.276184 564.028992 C 390.217224 561.164429 390.105286 558.470703 389.932373 555.947937 C 389.761475 553.425171 389.560059 550.788452 389.330139 548.033691 C 389.184937 546.296753 388.993469 544.37207 388.78009 542.360474 L 438.005676 609.610046 L 468.791809 609.610046 L 468.791809 489.212097 L 435.940674 489.212097 L 435.940674 514.496948 Z"/>
            <path id="path6" fill="#171109" stroke="none" d="M 584.026184 556.289734 C 581.963196 551.935913 578.980652 548.237183 575.08252 545.197632 C 571.184387 542.162109 566.625061 539.635254 561.40863 537.629272 C 556.190125 535.62323 550.428406 533.991577 544.123474 532.726074 C 542.28833 532.384277 540.253845 531.953003 538.017883 531.436218 C 535.781982 530.919434 533.688477 530.264343 531.741455 529.458679 C 529.790344 528.657104 528.18512 527.652039 526.923767 526.447632 C 525.662354 525.247253 525.031677 523.843445 525.031677 522.236206 C 525.031677 520.401062 525.605408 518.940308 526.752869 517.849792 C 527.898254 516.763367 529.531982 515.929199 531.653992 515.355469 C 533.773926 514.781738 536.26825 514.496948 539.136902 514.496948 C 542.231384 514.496948 545.26886 514.924194 548.251465 515.786804 C 551.231995 516.645386 554.127136 517.935242 556.936768 519.656433 C 559.746399 521.377625 562.354675 523.554565 564.763489 526.191284 L 585.059753 506.582703 C 582.075134 502.456726 578.549316 498.843445 574.480286 495.746918 C 570.409241 492.65448 565.392151 490.274109 559.431091 488.609863 C 553.467957 486.949707 546.245422 486.11557 537.759521 486.11557 C 531.568542 486.11557 525.63385 487.006683 519.959656 488.780762 C 514.283386 490.562988 509.266296 493.142761 504.908386 496.524109 C 500.550476 499.905457 497.053162 503.945984 494.418457 508.64975 C 491.777649 513.349487 490.461365 518.508972 490.461365 524.128296 C 490.461365 529.287781 491.291443 533.930542 492.955627 538.060547 C 494.615784 542.186523 497.140625 545.828308 500.523987 548.981812 C 503.90332 552.135254 508.118835 554.857422 513.164368 557.152344 C 518.209961 559.447266 524.114075 561.339355 530.880859 562.824585 C 532.713928 563.284363 534.606018 563.715698 536.557129 564.114441 C 538.50415 564.521362 540.453186 565.0625 542.404297 565.750183 C 544.353333 566.437866 546.129456 567.210938 547.736755 568.073608 C 549.339905 568.932129 550.601318 569.937195 551.51886 571.080566 C 552.436462 572.228027 552.89624 573.607422 552.89624 575.210632 C 552.89624 577.045776 552.351013 578.563477 551.262512 579.767944 C 550.169983 580.972351 548.595276 581.830933 546.532288 582.347656 C 544.467285 582.864441 542.172363 583.120789 539.651611 583.120789 C 533.916321 583.120789 528.012207 581.891968 521.937195 579.422058 C 515.858093 576.960327 509.953918 572.000183 504.220703 564.545776 L 484.270325 587.075867 C 488.28241 592.007507 492.839661 596.308472 497.944275 599.978699 C 503.044739 603.648926 508.950928 606.456543 515.658691 608.40564 C 522.366455 610.354675 530.020264 611.327148 538.620117 611.327148 C 547.791687 611.327148 556.019226 609.809448 563.30072 606.769897 C 570.582214 603.734375 576.372375 599.262573 580.67334 593.35437 C 584.972229 587.450195 587.122742 580.199219 587.122742 571.597351 C 587.122742 565.750183 586.091248 560.647644 584.026184 556.289734 Z"/>
        </g>
    </g>
</svg>
