<svg width="174" height="28" viewBox="0 0 174 28" fill="none" xmlns="http://www.w3.org/2000/svg">
<path d="M83.3016 28H46.9016C45.3557 28 44.1016 26.7458 44.1016 25.2V2.8C44.1016 1.25417 45.3557 0 46.9016 0H83.3016C84.8474 0 86.1016 1.25417 86.1016 2.8V25.2C86.1016 26.7458 84.8474 28 83.3016 28ZM77.3329 23.0055C77.3282 23.0055 77.3224 23.0055 77.3166 23.0055C76.9806 23.0055 76.6784 23.149 76.4672 23.3777L76.4661 23.3788C76.2456 23.6215 76.1102 23.9447 76.1102 24.2993C76.1102 24.654 76.2456 24.9783 76.4672 25.221L76.4661 25.2198C76.6784 25.4497 76.9806 25.5932 77.3166 25.5932H77.3329C77.3504 25.5943 77.3714 25.5955 77.3924 25.5955C77.6887 25.5955 77.9512 25.452 78.1146 25.2315L78.1157 25.2292V25.5395H78.6442V22.0757H78.1157V23.3707C77.9454 23.1478 77.6794 23.0043 77.3796 23.0043C77.3632 23.0043 77.3469 23.0043 77.3306 23.0055H77.3329ZM72.3746 23.0055C72.3664 23.0055 72.3571 23.0055 72.3477 23.0055C72.0106 23.0055 71.7061 23.1455 71.4902 23.3707C71.2697 23.6168 71.1344 23.9423 71.1344 24.3005C71.1344 24.6587 71.2697 24.9853 71.4914 25.2315L71.4902 25.2303C71.7072 25.4555 72.0117 25.5955 72.3489 25.5955H72.3769C72.3932 25.5967 72.4096 25.5967 72.4282 25.5967C72.7211 25.5967 72.9801 25.4532 73.1387 25.2327L73.1411 25.2303V25.5407H73.6894V23.079H73.1422V23.3707C72.9754 23.1478 72.7117 23.0043 72.4154 23.0043C72.4014 23.0043 72.3874 23.0043 72.3746 23.0055ZM69.9852 23.0055C69.9701 23.0043 69.9537 23.0043 69.9362 23.0043C69.2211 23.0043 68.6412 23.5842 68.6412 24.2993C68.6412 25.0145 69.2211 25.5943 69.9362 25.5943C69.9537 25.5943 69.9712 25.5943 69.9876 25.5932H69.9852C69.9992 25.5932 70.0156 25.5943 70.0331 25.5943C70.3481 25.5943 70.6362 25.4847 70.8637 25.3003L70.8614 25.3027L70.6059 24.8652C70.4437 24.9935 70.2384 25.0752 70.0156 25.0845H70.0132C69.9992 25.0857 69.9817 25.0857 69.9654 25.0857C69.7566 25.0857 69.5676 25.0017 69.4299 24.8652C69.3004 24.7147 69.2211 24.5163 69.2211 24.3005C69.2211 24.0847 69.3004 23.8863 69.4311 23.7347L69.4299 23.7358C69.5606 23.6005 69.7426 23.5165 69.9444 23.5165H69.9689H69.9677C70.2092 23.5177 70.4309 23.5993 70.6082 23.737L70.6059 23.7347L70.8614 23.2972C70.6304 23.114 70.3352 23.0043 70.0144 23.0043C70.0051 23.0043 69.9946 23.0055 69.9852 23.0055ZM65.2252 23.0055C65.2159 23.0055 65.2066 23.0055 65.1961 23.0055C64.8624 23.0055 64.5626 23.1455 64.3502 23.3707C64.1356 23.6028 64.0026 23.9143 64.0026 24.2573C64.0026 24.2737 64.0026 24.29 64.0037 24.3063V24.304C64.0026 24.3203 64.0026 24.339 64.0026 24.3577C64.0026 24.7018 64.1391 25.0145 64.3596 25.2432C64.5812 25.4637 64.8869 25.599 65.2241 25.599C65.2369 25.599 65.2509 25.599 65.2637 25.5978H65.2614C65.2754 25.5978 65.2929 25.599 65.3092 25.599C65.6744 25.599 66.0081 25.4672 66.2671 25.249L66.2647 25.2513L66.0092 24.8512C65.8202 25.018 65.5717 25.1218 65.2999 25.1242C65.2812 25.1253 65.2591 25.1265 65.2381 25.1265C64.8869 25.1265 64.5964 24.864 64.5521 24.5257V24.5222H66.3931V24.304C66.3942 24.2853 66.3942 24.2643 66.3942 24.2433C66.3942 23.9062 66.2694 23.5982 66.0629 23.3637L66.0641 23.3648C65.8634 23.1432 65.5741 23.0043 65.2521 23.0043C65.2439 23.0043 65.2346 23.0043 65.2264 23.0043L65.2252 23.0055ZM61.6354 23.079V23.5713H62.1452V24.6843C62.1452 25.2887 62.4334 25.5955 63.0016 25.5955H63.0214C63.2571 25.5955 63.4752 25.5255 63.6584 25.4065L63.6537 25.4088L63.5067 24.9527C63.3702 25.0308 63.2069 25.0775 63.0331 25.081C62.8021 25.081 62.6842 24.9468 62.6842 24.6808V23.5725H63.5592V23.0802H62.6842V22.3335H62.1371V23.0802L61.6354 23.079ZM59.3406 24.864L59.1037 25.284C59.3919 25.4788 59.7466 25.5943 60.1281 25.5943H60.1631H60.1607C60.1841 25.5955 60.2109 25.5967 60.2377 25.5967C60.5166 25.5967 60.7767 25.5138 60.9949 25.3715L60.9891 25.375C61.1711 25.2502 61.2901 25.0425 61.2901 24.8068C61.2901 24.801 61.2901 24.7963 61.2901 24.7905C61.2901 24.3798 61.0019 24.1383 60.4337 24.0625L60.1794 24.0252C59.8994 23.9773 59.7594 23.8922 59.7594 23.7708C59.7594 23.5888 59.9122 23.4978 60.2156 23.4978H60.2214C60.5072 23.4978 60.7756 23.5725 61.0077 23.7032L60.9996 23.6985L61.2189 23.261C60.9506 23.1 60.6262 23.0043 60.2797 23.0043C60.2576 23.0043 60.2342 23.0043 60.2121 23.0055H60.2156C60.1969 23.0043 60.1747 23.0043 60.1526 23.0043C59.8959 23.0043 59.6579 23.0872 59.4654 23.2272L59.4689 23.2248C59.3021 23.3555 59.1959 23.5573 59.1959 23.7848V23.8093V23.8082C59.1959 24.2072 59.4841 24.4463 60.0522 24.5187L60.2891 24.556C60.5796 24.605 60.7266 24.6902 60.7266 24.8115C60.7266 25.0168 60.5399 25.1218 60.1607 25.1218C60.1572 25.1218 60.1537 25.1218 60.1502 25.1218C59.8469 25.1218 59.5657 25.0262 59.3359 24.8628L59.3406 24.8663V24.864ZM57.2616 23.0043C57.2534 23.0043 57.2429 23.0043 57.2324 23.0043C56.8999 23.0043 56.5989 23.1443 56.3877 23.3695C56.1719 23.6168 56.0401 23.9435 56.0401 24.2993C56.0401 24.6552 56.1719 24.9818 56.3889 25.2315L56.3877 25.2303C56.6001 25.4555 56.8999 25.5955 57.2336 25.5955H57.2639C57.2779 25.5967 57.2931 25.5967 57.3106 25.5967C57.6104 25.5967 57.8776 25.4543 58.0467 25.2327L58.0479 25.2303V25.5407H58.5764V23.079H58.0479V23.3707C57.8647 23.1467 57.5894 23.0055 57.2802 23.0055C57.2744 23.0055 57.2686 23.0043 57.2616 23.0043ZM74.3976 23.0778V25.5395H74.9261V24.1547C74.9261 23.7323 75.1034 23.5177 75.4546 23.5177H75.4662C75.5817 23.5177 75.6914 23.5445 75.7882 23.5923L75.7836 23.59L75.9469 23.079C75.8442 23.0323 75.7252 23.0055 75.5992 23.0055C75.5864 23.0055 75.5747 23.0055 75.5619 23.0067H75.5642C75.5584 23.0067 75.5514 23.0067 75.5444 23.0067C75.2796 23.0067 75.0486 23.1525 74.9284 23.3683L74.9261 23.3718V23.0802L74.3976 23.0778ZM66.9426 23.0778V25.5395H67.4897V24.1547C67.4897 23.7323 67.6671 23.5177 68.0182 23.5177H68.0299C68.1454 23.5177 68.2551 23.5445 68.3519 23.5923L68.3472 23.59L68.5117 23.079C68.4044 23.0323 68.2807 23.0055 68.1501 23.0055C68.1431 23.0055 68.1361 23.0055 68.1279 23.0055C68.1221 23.0055 68.1151 23.0055 68.1081 23.0055C67.8432 23.0055 67.6134 23.1513 67.4932 23.3672L67.4909 23.3707V23.079L66.9426 23.0778ZM54.4732 23.5153C54.8361 23.5153 55.0204 23.7358 55.0204 24.1687V25.536H55.5676V23.9867C55.5676 23.975 55.5687 23.9622 55.5687 23.9482C55.5687 23.6915 55.4672 23.4593 55.3027 23.2878C55.1172 23.114 54.8664 23.0078 54.5922 23.0078C54.5887 23.0078 54.5852 23.0078 54.5817 23.0078C54.5642 23.0067 54.5432 23.0055 54.5222 23.0055C54.1886 23.0055 53.8946 23.1793 53.7277 23.4418L53.7254 23.4453C53.5702 23.1805 53.2879 23.0055 52.9636 23.0055C52.9437 23.0055 52.9227 23.0067 52.9029 23.0078H52.9052C52.9017 23.0078 52.8982 23.0078 52.8947 23.0078C52.6066 23.0078 52.3511 23.1513 52.1959 23.3707L52.1936 23.373V23.0813H51.6487V25.543H52.1959V24.1733C52.1959 23.7382 52.3989 23.52 52.7979 23.52C53.1607 23.52 53.3451 23.7405 53.3451 24.1733V25.5407H53.8736V24.1733C53.8736 23.737 54.0766 23.52 54.4744 23.52L54.4732 23.5153ZM70.8252 2.33333C70.8136 2.33333 70.8007 2.33333 70.7867 2.33333C68.8909 2.33333 67.1304 2.912 65.6709 3.90367L65.7024 3.88383C67.2144 5.11583 68.3449 6.76433 68.9201 8.65433L68.9387 8.72433C69.2141 9.5935 69.3716 10.5922 69.3716 11.6293C69.3716 12.6548 69.2164 13.643 68.9294 14.574L68.9481 14.504C68.3601 16.4617 67.2249 18.1055 65.7211 19.3083L65.7024 19.3235C67.1397 20.2942 68.9119 20.8728 70.8182 20.8728C72.1249 20.8728 73.3674 20.601 74.4932 20.111L74.4337 20.1343C76.6714 19.1858 78.4167 17.4405 79.3419 15.2635L79.3641 15.204C79.8307 14.1423 80.1026 12.9045 80.1026 11.6037C80.1026 10.3028 79.8307 9.065 79.3407 7.945L79.3641 8.00333C78.4156 5.7645 76.6656 4.01917 74.4839 3.0975L74.4244 3.07533C73.3662 2.60867 72.1331 2.33683 70.8369 2.33683C70.8322 2.33683 70.8287 2.33683 70.8241 2.33683L70.8252 2.33333ZM59.3779 2.33333C59.3744 2.33333 59.3697 2.33333 59.3651 2.33333C58.0689 2.33333 56.8346 2.60517 55.7192 3.094L55.7776 3.07067C53.5341 4.0145 51.7852 5.761 50.8589 7.9415L50.8367 8.001C50.3701 9.06267 50.0982 10.3005 50.0982 11.6013C50.0982 12.9022 50.3701 14.14 50.8601 15.26L50.8367 15.2017C51.7852 17.4393 53.5306 19.1847 55.7076 20.1098L55.7671 20.132C56.8334 20.5987 58.0771 20.8705 59.3826 20.8705C61.2901 20.8705 63.0611 20.2918 64.5311 19.3002L64.4984 19.3212C62.9782 18.095 61.8431 16.4442 61.2714 14.5507L61.2539 14.4818C60.9867 13.6232 60.8327 12.6362 60.8327 11.613C60.8327 8.50383 62.2537 5.726 64.4821 3.89433L64.4996 3.88033C63.0727 2.90967 61.3122 2.331 59.4164 2.331C59.4024 2.331 59.3884 2.331 59.3744 2.331H59.3767L59.3779 2.33333ZM65.1016 4.32017C63.6351 5.46 62.5396 7.01167 61.9831 8.8025L61.9656 8.86667C61.6996 9.68917 61.5456 10.6365 61.5456 11.6188C61.5456 12.5918 61.6961 13.5287 61.9749 14.4095L61.9574 14.3442C62.5279 16.2003 63.6281 17.752 65.0806 18.8697L65.1016 18.8848C66.5751 17.752 67.6752 16.2003 68.2294 14.4083L68.2469 14.3453C68.5082 13.5298 68.6587 12.5918 68.6587 11.6188C68.6587 10.6353 68.5047 9.68917 68.2212 8.80017L68.2387 8.8655C67.6647 7.0105 66.5692 5.45883 65.1237 4.33417L65.1027 4.319L65.1016 4.32017ZM77.4052 25.0833C77.3994 25.0833 77.3924 25.0833 77.3854 25.0833C77.1812 25.0833 76.9969 24.9958 76.8686 24.8558C76.7379 24.7088 76.6586 24.5128 76.6586 24.2993C76.6586 24.0858 76.7379 23.891 76.8697 23.7417L76.8686 23.7428C77.0051 23.6017 77.1952 23.5142 77.4064 23.5142C77.6176 23.5142 77.8089 23.6017 77.9442 23.7428C78.0737 23.8922 78.1531 24.0882 78.1531 24.3028C78.1531 24.5175 78.0737 24.7135 77.9431 24.864L77.9442 24.8628C77.8136 24.9993 77.6292 25.0833 77.4262 25.0833C77.4192 25.0833 77.4122 25.0833 77.4052 25.0833ZM72.4294 25.0833C72.4212 25.0833 72.4131 25.0833 72.4037 25.0833C72.2054 25.0833 72.0269 24.9993 71.9009 24.8652C71.7761 24.7123 71.7002 24.5152 71.7002 24.3005C71.7002 24.0858 71.7761 23.8887 71.9021 23.7335L71.9009 23.7347C72.0269 23.5993 72.2054 23.5153 72.4037 23.5153H72.4306H72.4504C72.6546 23.5153 72.8389 23.6028 72.9661 23.7428C73.0967 23.884 73.1761 24.073 73.1761 24.2807V24.304V24.3028C73.1761 24.3122 73.1772 24.3238 73.1772 24.3343C73.1772 24.5397 73.1014 24.7263 72.9754 24.8698L72.9766 24.8687C72.8471 25.0017 72.6674 25.0833 72.4679 25.0833C72.4551 25.0833 72.4411 25.0833 72.4282 25.0822H72.4306L72.4294 25.0833ZM57.3351 25.0833C57.3246 25.0833 57.3129 25.0845 57.3012 25.0845C57.0994 25.0845 56.9174 25.0005 56.7891 24.8652C56.6642 24.7123 56.5884 24.5152 56.5884 24.3005C56.5884 24.0858 56.6642 23.8887 56.7902 23.7335L56.7891 23.7347C56.9186 23.5993 57.1006 23.5153 57.3024 23.5153C57.3141 23.5153 57.3269 23.5153 57.3386 23.5165H57.3642C57.5637 23.5165 57.7434 23.604 57.8659 23.744L57.8671 23.7452C57.9907 23.8968 58.0666 24.0917 58.0666 24.3052C58.0666 24.5187 57.9907 24.7135 57.8659 24.8663L57.8671 24.8652C57.7411 25.0005 57.5614 25.0845 57.3619 25.0845C57.3537 25.0845 57.3444 25.0845 57.3362 25.0845H57.3374L57.3351 25.0833ZM65.8482 24.08H64.5731C64.6022 23.751 64.8764 23.4943 65.2112 23.4943C65.5461 23.4943 65.8202 23.751 65.8494 24.0777V24.08H65.8482Z" fill="#171109"/>
<path d="M2.8 0C1.2537 0 0 1.2537 0 2.8V25.2C0 26.7463 1.2537 28 2.8 28H37.8C39.3463 28 40.6 26.7463 40.6 25.2V2.8C40.6 1.2537 39.3463 0 37.8 0H2.8ZM25.1207 8.925C26.0972 8.925 26.8824 9.13717 27.4928 9.35977L27.0471 11.4379C25.9124 10.915 24.9105 10.9514 24.5479 10.999C23.815 11.0942 23.481 11.4686 23.4719 11.8193C23.4474 12.975 27.0343 13.1177 27.0238 15.7035C27.014 17.7405 25.2733 19.0545 22.6119 19.0545C21.4779 19.044 20.3836 18.8059 19.7928 18.5336L20.2521 16.3871C20.8408 16.6622 21.5799 17.026 22.8539 17.0064C23.584 16.9952 24.3638 16.7053 24.3715 16.048C24.375 15.6182 24.0446 15.3101 23.0576 14.8299C22.0972 14.3616 20.8212 13.5744 20.8387 12.1639C20.8527 10.2578 22.6154 8.925 25.1207 8.925ZM4.67852 9.1041H8.99062C9.53942 9.1041 10.0343 9.46935 10.1596 10.1021L11.226 15.7719L13.8646 9.1041H16.5266L12.4195 18.9014H9.74121L7.72051 11.0824C7.59801 10.6008 7.49205 10.4255 7.11895 10.2225C6.50925 9.89066 5.50316 9.58098 4.61836 9.38848L4.67852 9.1041ZM17.6135 9.1041H20.1469L18.051 18.9014H15.5176L17.6135 9.1041ZM31.7734 9.1041H33.9377L35.983 18.9014H33.6383L33.3307 17.4385H30.0809L29.5518 18.9014H26.8926L30.6947 9.82324C30.8774 9.38784 31.2869 9.1041 31.7734 9.1041ZM32.1453 11.7496L30.8096 15.4301H32.9123L32.1453 11.7496Z" fill="#171109"/>
<path d="M129.428 27.9988H92.4463C90.8758 27.9988 89.6016 26.7446 89.6016 25.1987V13.4196H91.651L92.1133 12.3182H93.148L93.6091 13.4149H97.6416V12.5807L98.0019 13.4207H100.095L100.456 12.5667V13.4184H110.475V11.617H110.665C110.8 11.6217 110.839 11.6333 110.839 11.855V13.4207H116.022V13.0019C116.552 13.2667 117.177 13.4219 117.839 13.4219C117.877 13.4219 117.914 13.4219 117.952 13.4207H117.946H120.127L120.594 12.324H121.629L122.085 13.4207H126.288V12.3777L126.924 13.4207H130.285V6.53244H126.958V7.34564L126.492 6.53244H123.071V7.34564L122.644 6.53244H118.024C117.965 6.52894 117.894 6.52777 117.824 6.52777C117.169 6.52777 116.549 6.67711 115.999 6.94429L116.024 6.93379V6.53244H112.837V6.93379C112.51 6.67945 112.093 6.52661 111.639 6.52661C111.583 6.52661 111.529 6.52894 111.475 6.53361H111.483H99.8392L99.0581 8.31285L98.2556 6.53361H94.5882V7.34681L94.184 6.53361H91.0548L89.6051 9.80041V2.80012C89.6051 1.25422 90.8793 0 92.4499 0H129.432C131.002 0 132.277 1.25422 132.277 2.80012V15.0273H130.057C130.021 15.025 129.978 15.025 129.937 15.025C129.422 15.025 128.945 15.1766 128.546 15.4368L128.556 15.431V15.0273H125.273C125.237 15.025 125.194 15.0238 125.152 15.0238C124.661 15.0238 124.205 15.1755 123.832 15.4345L123.84 15.4298V15.0261H117.977V15.4298C117.524 15.1755 116.981 15.0261 116.404 15.0261C116.389 15.0261 116.373 15.0261 116.358 15.0261H116.36H112.492V15.4298C112.082 15.1696 111.582 15.0156 111.045 15.0156C110.96 15.0156 110.875 15.0191 110.79 15.0273L110.801 15.0261H106.473L105.482 16.0808L104.556 15.0261H98.0908V21.9191H104.435L105.455 20.848L106.417 21.9191H110.327V20.3055H110.872C110.916 20.3078 110.968 20.3078 111.02 20.3078C111.51 20.3078 111.978 20.2168 112.408 20.0523L112.382 20.0617V21.9214H115.606V20.1258H115.762C115.958 20.1258 115.979 20.1328 115.979 20.3288V21.9226H125.776C125.812 21.9237 125.855 21.9249 125.896 21.9249C126.458 21.9249 126.982 21.7592 127.418 21.4757L127.407 21.4816V21.9226H130.515C130.559 21.9237 130.611 21.9249 130.663 21.9249C131.245 21.9249 131.799 21.8071 132.302 21.5936L132.274 21.6041V25.1999C132.274 26.7458 131 28 129.43 28L129.428 27.9988ZM114.618 20.953H113.411V16.012H116.18C116.259 16.005 116.351 16.0003 116.444 16.0003C116.871 16.0003 117.276 16.0902 117.642 16.2523L117.623 16.2453C117.994 16.446 118.241 16.8287 118.241 17.2674C118.241 17.2942 118.24 17.3199 118.239 17.3456V17.3421C118.239 17.3549 118.24 17.3712 118.24 17.3864C118.24 17.9534 117.893 18.4411 117.395 18.6534L117.385 18.6569C117.624 18.7409 117.823 18.8845 117.971 19.07L117.973 19.0723C118.104 19.2835 118.182 19.5401 118.182 19.8132C118.182 19.8703 118.178 19.9252 118.173 19.9812L118.174 19.9742V20.9519H116.969V20.3335C116.981 20.2647 116.988 20.1842 116.988 20.1025C116.988 19.8307 116.91 19.5763 116.776 19.3605L116.78 19.3663C116.587 19.2216 116.341 19.1341 116.076 19.1341C116.014 19.1341 115.952 19.1388 115.893 19.1481L115.9 19.147H114.618V20.9519V20.953ZM114.618 17.0329V18.1424H116.076C116.108 18.1459 116.143 18.1471 116.181 18.1471C116.358 18.1471 116.526 18.1074 116.675 18.0374L116.668 18.0409C116.819 17.9441 116.917 17.7796 116.917 17.5917C116.917 17.5824 116.917 17.5742 116.916 17.5649C116.917 17.5556 116.917 17.5462 116.917 17.5357C116.917 17.3584 116.818 17.2032 116.671 17.1227L116.668 17.1215C116.53 17.0597 116.368 17.0235 116.198 17.0235C116.163 17.0235 116.129 17.0247 116.095 17.0282H116.099L114.618 17.0329ZM103.92 20.9519H99.1707V16.012H103.995L105.471 17.6314L106.996 16.012H110.828C112.189 16.012 112.85 16.5452 112.85 17.6396C112.85 18.7538 112.167 19.2951 110.764 19.2951H109.265V20.9507H106.933L105.456 19.3185L103.921 20.9519H103.92ZM108.07 16.5417L106.228 18.4901L108.07 20.5015V16.5417ZM100.367 18.9393V19.9217H103.316L104.679 18.4726L103.368 17.0329H100.365V17.9312H102.999V18.9381L100.367 18.9393ZM109.265 17.034V18.2918H110.814C111.288 18.2918 111.561 18.0538 111.561 17.6384C111.561 17.2417 111.307 17.0329 110.827 17.0329L109.265 17.034ZM130.646 20.9542H128.33V19.8925H130.636C130.663 19.896 130.694 19.8983 130.726 19.8983C130.874 19.8983 131.012 19.8505 131.123 19.7688L131.122 19.77C131.209 19.6907 131.263 19.5775 131.263 19.4515C131.263 19.4503 131.263 19.4491 131.263 19.448C131.263 19.4433 131.263 19.4375 131.263 19.4328C131.263 19.308 131.206 19.1971 131.117 19.1225C131.018 19.0513 130.893 19.0093 130.759 19.0093C130.737 19.0093 130.714 19.0105 130.693 19.0128H130.695L130.474 19.0058C129.39 18.9778 128.164 18.9451 128.164 17.4832C128.164 16.7715 128.616 16.012 129.884 16.012H132.274V17.0644H130.087C130.06 17.0609 130.029 17.0597 129.997 17.0597C129.853 17.0597 129.718 17.0959 129.599 17.16L129.604 17.1577C129.498 17.2266 129.428 17.3444 129.428 17.4762C129.428 17.4879 129.428 17.4984 129.43 17.5101V17.5089V17.5217C129.43 17.6874 129.539 17.8274 129.69 17.8764L129.693 17.8776C129.81 17.9137 129.945 17.9359 130.085 17.9359C130.109 17.9359 130.134 17.9347 130.157 17.9336H130.154L130.805 17.9499C130.859 17.9441 130.923 17.9406 130.987 17.9406C131.434 17.9406 131.845 18.0934 132.169 18.3501L132.165 18.3478C132.201 18.3758 132.232 18.4061 132.259 18.4399L132.26 18.4411L132.274 20.3218C131.929 20.7162 131.421 20.9647 130.853 20.9647C130.78 20.9647 130.707 20.96 130.637 20.953L130.646 20.9542ZM125.965 20.9542H123.627V19.8925H125.953C125.979 19.896 126.01 19.8983 126.041 19.8983C126.191 19.8983 126.331 19.8505 126.445 19.7688L126.443 19.77C126.529 19.6907 126.582 19.5763 126.582 19.4515C126.582 19.4503 126.582 19.4491 126.582 19.448C126.582 19.4456 126.582 19.4421 126.582 19.4398C126.582 19.3138 126.525 19.1995 126.437 19.1225C126.336 19.0513 126.209 19.0093 126.073 19.0093C126.05 19.0093 126.028 19.0105 126.006 19.0128H126.009L125.788 19.0058C124.708 18.9778 123.483 18.9451 123.483 17.4832C123.483 16.7715 123.933 16.012 125.198 16.012H127.602V17.0644H125.402C125.375 17.0609 125.344 17.0597 125.313 17.0597C125.169 17.0597 125.034 17.0959 124.917 17.16L124.922 17.1577C124.812 17.2336 124.74 17.3572 124.74 17.4972C124.74 17.6699 124.848 17.8181 125 17.8799L125.002 17.8811C125.121 17.9172 125.256 17.9394 125.397 17.9394C125.422 17.9394 125.448 17.9382 125.473 17.9371H125.469L126.115 17.9534C126.17 17.9476 126.233 17.9452 126.296 17.9452C126.746 17.9452 127.161 18.0981 127.488 18.3548L127.484 18.3513C127.71 18.5963 127.848 18.9218 127.848 19.28C127.848 19.3208 127.846 19.3628 127.842 19.4025V19.3966C127.846 20.4269 127.212 20.9519 125.961 20.9519L125.965 20.9542ZM122.909 20.9542H118.903V16.0108H122.906V17.0317H120.1V17.9301H122.84V18.937H120.1V19.9193L122.909 19.924V20.9507V20.9542ZM125.244 12.4535H122.801L122.334 11.3521H119.843L119.39 12.4535H117.986C117.947 12.4559 117.901 12.457 117.855 12.457C117.246 12.457 116.685 12.2505 116.242 11.904L116.248 11.9075C115.843 11.4676 115.597 10.8831 115.597 10.2403C115.597 10.1633 115.6 10.0863 115.608 10.0116L115.606 10.0209C115.6 9.95558 115.597 9.87975 115.597 9.80274C115.597 9.14471 115.846 8.54502 116.256 8.08767L116.254 8.09C116.677 7.72599 117.234 7.50431 117.844 7.50431C117.926 7.50431 118.005 7.50781 118.085 7.51598L118.075 7.51481H119.237V8.56836H118.099C118.056 8.56252 118.007 8.55902 117.956 8.55902C117.653 8.55902 117.38 8.67336 117.174 8.8612L117.176 8.86004C116.958 9.13421 116.826 9.48423 116.826 9.86341C116.826 9.90425 116.827 9.94508 116.831 9.98475V9.97892C116.826 10.0233 116.824 10.0758 116.824 10.1283C116.824 10.5086 116.95 10.8598 117.164 11.1433L117.16 11.1386C117.361 11.2996 117.618 11.3976 117.9 11.3976C117.934 11.3976 117.967 11.3965 118.001 11.393H117.996H118.534L120.23 7.50781H122.032L124.062 12.1747V7.50781H125.889L127.996 10.9473V7.50781H129.229V12.4454H127.518L125.242 8.73753V12.4454L125.244 12.4535ZM121.097 8.34901L120.271 10.3184H121.926L121.097 8.34901ZM109.482 12.4512H108.282V7.51131H111.042C111.127 7.50198 111.227 7.49731 111.327 7.49731C111.75 7.49731 112.152 7.58948 112.513 7.75516L112.495 7.74816C112.861 7.95 113.104 8.32918 113.104 8.76437C113.104 8.79237 113.103 8.8192 113.102 8.84604V8.84254V8.8787C113.102 9.44689 112.758 9.93575 112.265 10.1551L112.255 10.1586C112.494 10.2473 112.694 10.3896 112.847 10.5716L112.849 10.5739C112.98 10.7839 113.058 11.0383 113.058 11.3113C113.058 11.3708 113.054 11.4291 113.047 11.4875L113.048 11.4805V12.45H111.838L111.833 11.827V11.7337C111.841 11.6812 111.845 11.6205 111.845 11.5575C111.845 11.3008 111.771 11.0616 111.64 10.8598L111.644 10.8656C111.451 10.7256 111.208 10.6404 110.944 10.6404C110.883 10.6404 110.821 10.6451 110.762 10.6544L110.769 10.6533H109.483V12.45L109.482 12.4512ZM109.482 8.53919V9.6359H110.937C110.972 9.6394 111.012 9.64174 111.052 9.64174C111.227 9.64174 111.39 9.60207 111.536 9.5309L111.53 9.53323C111.681 9.44223 111.779 9.28122 111.779 9.09805C111.779 9.08755 111.779 9.07588 111.778 9.06538C111.779 9.05604 111.779 9.04671 111.779 9.03621C111.779 8.86004 111.677 8.7072 111.528 8.63136L111.525 8.63019C111.383 8.56952 111.218 8.53336 111.044 8.53336C111.013 8.53336 110.982 8.53452 110.953 8.53686H110.956L109.482 8.53919ZM96.7799 12.4512H94.3428L93.8818 11.3498H91.3831L90.9185 12.4512H89.6146L91.7636 7.51131H93.5451L95.5851 12.1863V7.51131H97.542L99.1114 10.861L100.554 7.51131H102.551V12.4489H101.318L101.316 8.58469L99.5772 12.45H98.5247L96.7811 8.57886V12.45L96.7799 12.4512ZM92.6265 8.34901L91.8098 10.3184H93.4479L92.6265 8.34901ZM115.015 12.45H113.792V7.51131H115.016V12.4489L115.015 12.45ZM107.445 12.45H103.446V7.51131H107.452V8.53802H104.646V9.42823H107.385V10.4421H104.643V11.4291H107.45V12.4489L107.445 12.45Z" fill="#171109"/>
<path d="M139.581 0C137.496 0 135.801 1.74392 135.801 3.88889V24.1111C135.801 26.2561 137.496 28 139.581 28H169.821C171.906 28 173.601 26.2561 173.601 24.1111V3.88889C173.601 1.74392 171.906 0 169.821 0H139.581ZM155.386 8.55556C155.454 8.54036 155.528 8.55556 155.599 8.55556C156.163 8.55556 156.614 9.01129 156.614 9.60069C156.614 10.181 156.163 10.6458 155.599 10.6458C155.026 10.6458 154.559 10.181 154.559 9.60069C154.559 9.08724 154.916 8.65278 155.386 8.55556ZM148.511 9.47917V11.2778H149.763L149.527 12.7604H148.511V15.3854C148.511 15.8442 148.694 16.0417 149.078 16.0417C149.258 16.0417 149.527 15.9748 149.645 15.9444V17.5243C149.432 17.579 149.108 17.6701 148.606 17.6701C147.956 17.6701 147.51 17.5243 147.188 17.2569C146.804 16.9349 146.621 16.4336 146.621 15.6771V12.7604H145.818L146.03 11.375L146.621 11.2778L146.857 9.77083L148.511 9.47917ZM143.479 11.1563C144.409 11.1563 145.088 11.4084 145.416 11.5694L145.18 13.0764C144.766 12.8668 144.161 12.6389 143.573 12.6389C143.252 12.6389 143.077 12.7543 143.077 12.9792C143.077 13.2465 143.402 13.4167 143.975 13.6354C145.047 14.0304 145.7 14.4861 145.7 15.6042C145.7 16.2786 145.475 16.8043 145.038 17.1597C144.648 17.4818 144.058 17.6701 143.361 17.6701C142.484 17.6701 141.642 17.3785 141.187 17.1111L141.424 15.6042C141.955 15.9262 142.773 16.1875 143.266 16.1875C143.665 16.1875 143.881 16.0417 143.881 15.7743C143.881 15.5009 143.665 15.3186 142.983 15.0694C141.926 14.6745 141.282 14.1944 141.282 13.1007C141.282 12.4961 141.489 12.013 141.896 11.6667C142.289 11.3355 142.82 11.1563 143.479 11.1563ZM160.796 11.1563C161.407 11.1563 161.892 11.378 162.237 11.8368C162.63 12.3533 162.828 13.1554 162.828 14.2188C162.828 15.4188 162.55 16.3273 162.025 16.9167C161.475 17.5273 160.784 17.6701 160.3 17.6701C160.025 17.6701 159.724 17.6215 159.426 17.5243V19.5174L157.465 19.8576V11.2778H159.19L159.284 11.9097C159.745 11.4023 160.232 11.1563 160.796 11.1563ZM166.253 11.1563C167.06 11.1563 167.674 11.4418 168.096 12.0069C168.51 12.5629 168.734 13.3407 168.734 14.3403C168.734 14.4861 168.719 14.9479 168.71 15.0451H165.497C165.536 15.4553 165.648 15.7439 165.852 15.9201C166.038 16.0903 166.304 16.1632 166.679 16.1632C167.305 16.1632 167.854 16.0417 168.332 15.7743L168.545 17.1354C168.061 17.4666 167.296 17.6701 166.466 17.6701C165.565 17.6701 164.871 17.424 164.387 16.941C163.847 16.4032 163.56 15.5647 163.56 14.4375C163.56 12.4232 164.603 11.1563 166.253 11.1563ZM153.496 11.1806C153.614 11.1806 153.717 11.1988 153.85 11.2292V13.0764C153.717 13.0521 153.623 13.0521 153.52 13.0521C153.05 13.0521 152.699 13.1584 152.456 13.4653V17.5486H150.519V11.2778H152.22L152.338 12.0069C152.51 11.4753 152.947 11.1806 153.496 11.1806ZM154.606 11.2778H156.567V17.5486H154.606V11.2778ZM166.064 12.5174C165.719 12.6085 165.521 13.049 165.474 13.8299H166.915C166.885 12.9427 166.643 12.5174 166.206 12.5174C166.15 12.5174 166.115 12.5052 166.064 12.5174ZM160.158 12.6875C160.049 12.6875 159.754 12.7209 159.426 13.0764V16.0417C159.582 16.1207 159.751 16.1632 159.946 16.1632C160.226 16.1632 160.474 16.0082 160.631 15.7014C160.811 15.3793 160.891 14.9023 160.891 14.2917C160.891 13.2192 160.651 12.6875 160.158 12.6875Z" fill="#171109"/>
</svg>
