<?xml version="1.0" encoding="UTF-8"?>
<!-- Generated by Pixelmator Pro 3.5.6 -->
<svg width="195" height="123" viewBox="0 0 195 123" xmlns="http://www.w3.org/2000/svg">
    <path id="Path" fill="#f2e4ff" stroke="none" d="M 194.579285 68.671875 L 157.509521 32.753906 L 128.751221 32.753906 L 128.751221 0.020508 L 48.025696 0.020508 L 48.025696 12.412109 L 116.35968 12.412109 L 116.35968 32.753906 L 116.35968 81.604492 L 12.423157 81.604492 L 12.423157 46.275391 L 0.031616 46.275391 L 0.031616 93.995117 L 17.576294 93.995117 C 17.107849 95.844727 16.854187 97.754883 16.854187 99.697266 C 16.854187 112.467773 27.243042 122.857422 40.013733 122.857422 C 52.784485 122.857422 63.175293 112.467773 63.175293 99.697266 C 63.175293 97.746094 62.909058 95.839844 62.443176 93.995117 L 116.35968 93.995117 L 128.751221 93.995117 L 133.108215 93.995117 C 132.639221 95.845703 132.38562 97.754883 132.38562 99.697266 C 132.38562 112.467773 142.774414 122.857422 155.545166 122.857422 C 168.315857 122.857422 178.706665 112.467773 178.706665 99.697266 C 178.706665 97.746094 178.440491 95.839844 177.974548 93.995117 L 194.579285 93.995117 L 194.579285 68.671875 Z M 40.013733 110.464844 C 34.076111 110.464844 29.245728 105.634766 29.245728 99.697266 C 29.245728 97.660156 29.828125 95.701172 30.899109 93.995117 L 49.12439 93.995117 C 50.189758 95.692383 50.783691 97.645508 50.783691 99.697266 C 50.783691 105.634766 45.951355 110.464844 40.013733 110.464844 Z M 155.545166 110.464844 C 149.607544 110.464844 144.777161 105.634766 144.777161 99.697266 C 144.777161 97.662109 145.361084 95.703125 146.432495 93.995117 L 164.655823 93.995117 C 165.721191 95.692383 166.315125 97.645508 166.315125 99.697266 C 166.315125 105.634766 161.482727 110.464844 155.545166 110.464844 Z M 182.187744 81.604492 L 128.751221 81.604492 L 128.751221 45.144531 L 152.491638 45.144531 L 165.342529 57.597656 L 144.498901 57.597656 L 144.498901 69.989258 L 177.506714 69.989258 L 177.506714 69.383789 L 182.187744 73.919922 L 182.187744 81.604492 Z"/>
</svg>
